<svg width="91" height="41" viewBox="0 0 91 41" fill="none" xmlns="http://www.w3.org/2000/svg">
<path d="M3 14.5628C3.48087 14.3197 3.82063 13.9355 4.21053 13.6033C8.6875 9.79002 13.1558 5.96872 17.6155 2.13939C17.8865 1.90555 18.0165 1.99834 18.1966 2.18022C19.3644 3.36614 19.5389 4.74507 19.1787 6.22236C18.969 7.08163 18.4955 7.77392 17.7547 8.39563C15.2278 10.5058 12.7177 12.6327 10.2947 14.8356C9.22533 15.8081 8.00365 16.066 6.59445 16.0159C5.18526 15.9658 4.02301 15.4703 3 14.6518V14.5628Z" fill="#273C89"/>
<path d="M27.3505 33.2235C27.3673 33.4963 27.3041 33.8619 27.2224 34.2256C27.1407 34.5894 26.9569 34.929 26.6339 35.2222C25.3639 36.3785 24.1293 37.5626 22.8742 38.7299C22.6421 38.9461 22.3952 39.1458 22.1352 39.3275C20.9916 40.1237 19.7848 40.2202 18.5074 39.5781C17.6737 39.1586 16.9645 38.6167 16.2887 38.0135C13.7952 35.7865 11.2999 33.5575 8.73586 31.3973C7.78154 30.5918 7.4659 29.6546 7.46036 28.5763C7.45292 27.4312 7.87624 26.4049 8.65418 25.4844C8.88252 25.2153 8.9995 25.2413 9.24458 25.4584C12.6818 28.5256 16.1216 31.5903 19.5638 34.6525C19.8683 34.9253 20.0131 34.9383 20.3194 34.6488C21.9755 33.0843 23.6688 31.5513 25.3305 29.9905C25.6127 29.7251 25.7743 29.7399 26.0267 29.9979C26.905 30.898 27.3654 31.9299 27.3505 33.2235Z" fill="#273C89"/>
<path d="M11.5985 20.3123C11.6096 19.1116 12.0998 18.0778 13.0578 17.2464C15.6423 14.9989 18.2564 12.7774 20.8446 10.5299C21.1193 10.2905 21.2419 10.2961 21.4777 10.5559C22.9277 12.1501 22.7606 14.8356 21.1193 16.2591C19.842 17.367 18.5776 18.4843 17.3114 19.5997C16.721 20.1193 16.6467 20.5814 17.0737 21.2291C17.5769 21.9956 18.2991 22.5914 19.0288 23.1778C19.8884 23.8664 20.7035 24.5828 21.0692 25.5998C21.2772 26.1788 21.305 26.7616 21.1231 27.348C20.8724 28.1479 20.4992 28.907 20.0982 29.6549C20.0128 29.8145 19.9292 29.8962 19.7362 29.7477C16.9976 27.6413 14.3018 25.4977 12.3857 22.712C11.8826 21.9808 11.5967 21.1828 11.5985 20.3123Z" fill="#1869B3"/>
<path d="M36.3559 14.5969C36.6054 14.5969 36.8014 14.7928 36.8014 15.0422V16.3603C36.8014 16.6274 36.6054 16.8233 36.3559 16.8233H29.2465V19.7622H35.3403C35.5897 19.7622 35.7857 19.9582 35.7857 20.2075V21.5256C35.7857 21.7927 35.5897 21.9887 35.3403 21.9887H29.2465V26.6197C29.2465 26.869 29.0505 27.065 28.8011 27.065H27.4825C27.2153 27.065 27.0193 26.869 27.0193 26.6197V15.0422C27.0193 14.7928 27.2153 14.5969 27.4647 14.5969H36.3559ZM40.3653 15.0422C40.3653 14.7928 40.5614 14.5969 40.8108 14.5969H42.1294C42.3966 14.5969 42.5926 14.7928 42.5926 15.0422V26.6197C42.5926 26.869 42.3966 27.065 42.1472 27.065H40.8286C40.5614 27.065 40.3653 26.869 40.3653 26.6197V15.0422ZM46.8731 26.6197V15.0422C46.8731 14.7928 46.9977 14.5969 47.3187 14.5969C47.8708 14.5969 48.9043 16.0218 55.4256 21.9531V15.0422C55.4256 14.7928 55.6216 14.5969 55.8712 14.5969H57.1899C57.4572 14.5969 57.6532 14.7928 57.6532 15.0422V26.6197C57.6532 27.0115 57.4927 27.065 57.1899 27.065C56.6729 27.065 55.4256 25.4441 49.1003 19.7801V26.6197C49.1003 26.869 48.9043 27.065 48.6551 27.065H47.3365C47.0691 27.065 46.8731 26.869 46.8731 26.6197ZM60.9087 15.0422C60.8732 14.9709 60.8555 14.9175 60.8555 14.8641C60.8555 14.7038 60.98 14.5969 61.176 14.5969H62.833C63.0826 14.5969 63.3499 14.7928 63.4745 15.0422L66.9671 22.6655L70.4415 15.0422C70.5483 14.7928 70.8334 14.5969 71.083 14.5969H72.74C72.936 14.5969 73.0428 14.7038 73.0428 14.8641C73.0428 14.9175 73.0428 14.9709 73.0074 15.0422C67.3054 26.9403 67.359 27.0828 66.9671 27.065C66.5392 27.065 66.5215 26.8869 60.9087 15.0422ZM76.0668 15.0422C76.0668 14.7928 76.2628 14.5969 76.5124 14.5969H77.8306C78.098 14.5969 78.294 14.7928 78.294 15.0422V20.7419C78.294 23.8233 79.2384 25.1057 81.7684 25.1057C84.477 25.1057 85.2609 23.8233 85.2609 20.7419V15.0422C85.2609 14.7928 85.4569 14.5969 85.7065 14.5969H87.0247C87.2921 14.5969 87.488 14.7928 87.488 15.0422V21.205C87.488 25.8182 85.1004 27.4212 81.7684 27.4212C78.1157 27.4212 76.1023 25.4263 76.0846 21.3118L76.0668 15.0422Z" fill="url(#paint0_linear_1_25)"/>
<defs>
<linearGradient id="paint0_linear_1_25" x1="26.0917" y1="22.9726" x2="87.2994" y2="22.6876" gradientUnits="userSpaceOnUse">
<stop stop-color="#17378B"/>
<stop offset="1" stop-color="#1071BC"/>
</linearGradient>
</defs>
</svg>
